<svg xmlns="http://www.w3.org/2000/svg" xmlns:xlink="http://www.w3.org/1999/xlink" width="40" zoomAndPan="magnify" viewBox="0 0 30 30.000001" height="40" preserveAspectRatio="xMidYMid meet" version="1.0"><defs><clipPath id="2a6be4c086"><path d="M 0.484375 0 L 29.515625 0 L 29.515625 29.03125 L 0.484375 29.03125 Z M 0.484375 0 " clip-rule="nonzero"/></clipPath></defs><g clip-path="url(#2a6be4c086)"><path fill="#de0909" d="M 15 0 C 23.015625 0 29.515625 6.664062 29.515625 14.882812 C 29.515625 21.457031 25.363281 27.035156 19.597656 29.003906 C 18.859375 29.152344 18.601562 28.6875 18.601562 28.289062 C 18.601562 27.800781 18.617188 26.195312 18.617188 24.207031 C 18.617188 22.816406 18.152344 21.914062 17.632812 21.449219 C 20.863281 21.082031 24.261719 19.824219 24.261719 14.105469 C 24.261719 12.480469 23.699219 11.15625 22.765625 10.113281 C 22.917969 9.734375 23.414062 8.222656 22.625 6.171875 C 22.625 6.171875 21.40625 5.773438 18.636719 7.699219 C 17.476562 7.367188 16.234375 7.203125 15 7.195312 C 13.765625 7.203125 12.523438 7.367188 11.367188 7.699219 C 8.59375 5.773438 7.375 6.171875 7.375 6.171875 C 6.585938 8.222656 7.082031 9.734375 7.230469 10.113281 C 6.304688 11.15625 5.738281 12.480469 5.738281 14.105469 C 5.738281 19.808594 9.125 21.085938 12.351562 21.460938 C 11.9375 21.832031 11.558594 22.488281 11.429688 23.453125 C 10.601562 23.832031 8.5 24.492188 7.203125 22.214844 C 7.203125 22.214844 6.4375 20.785156 4.980469 20.679688 C 4.980469 20.679688 3.5625 20.664062 4.878906 21.585938 C 4.878906 21.585938 5.832031 22.042969 6.492188 23.761719 C 6.492188 23.761719 7.34375 26.417969 11.382812 25.519531 C 11.390625 26.761719 11.402344 27.9375 11.402344 28.289062 C 11.402344 28.683594 11.136719 29.144531 10.410156 29.007812 C 4.644531 27.039062 0.484375 21.460938 0.484375 14.882812 C 0.484375 6.664062 6.984375 0 15 0 " fill-opacity="1" fill-rule="evenodd"/></g></svg>