<svg xmlns="http://www.w3.org/2000/svg" xmlns:xlink="http://www.w3.org/1999/xlink" width="40" zoomAndPan="magnify" viewBox="0 0 30 30.000001" height="40" preserveAspectRatio="xMidYMid meet" version="1.0"><defs><clipPath id="c07bb48568"><path d="M 0.484375 0 L 29.515625 0 L 29.515625 29 L 0.484375 29 Z M 0.484375 0 " clip-rule="nonzero"/></clipPath></defs><g clip-path="url(#c07bb48568)"><path fill="#de0909" d="M 29.644531 14.34375 C 29.609375 11.585938 28.789062 8.894531 27.277344 6.589844 C 25.765625 4.285156 23.625 2.457031 21.109375 1.324219 C 18.597656 0.195312 15.808594 -0.195312 13.082031 0.203125 C 10.351562 0.601562 7.792969 1.773438 5.707031 3.578125 C 3.621094 5.382812 2.09375 7.742188 1.308594 10.386719 C 0.519531 13.03125 0.503906 15.84375 1.257812 18.496094 C 2.015625 21.144531 3.515625 23.527344 5.578125 25.355469 C 7.644531 27.183594 10.1875 28.382812 12.914062 28.816406 L 12.914062 18.558594 L 9.292969 18.558594 L 9.292969 14.34375 L 12.914062 14.34375 L 12.914062 11.144531 C 12.828125 10.398438 12.910156 9.644531 13.148438 8.933594 C 13.386719 8.226562 13.78125 7.578125 14.296875 7.035156 C 14.816406 6.492188 15.445312 6.070312 16.144531 5.800781 C 16.84375 5.527344 17.589844 5.414062 18.339844 5.464844 C 19.425781 5.476562 20.507812 5.574219 21.578125 5.753906 L 21.578125 9.371094 L 19.769531 9.371094 C 19.457031 9.332031 19.140625 9.363281 18.839844 9.460938 C 18.542969 9.5625 18.269531 9.726562 18.046875 9.945312 C 17.820312 10.164062 17.644531 10.429688 17.535156 10.726562 C 17.429688 11.019531 17.386719 11.335938 17.417969 11.648438 L 17.417969 14.378906 L 21.433594 14.378906 L 20.78125 18.59375 L 17.433594 18.59375 L 17.433594 28.726562 C 20.851562 28.183594 23.964844 26.4375 26.203125 23.796875 C 28.445312 21.160156 29.664062 17.804688 29.644531 14.34375 Z M 29.644531 14.34375 " fill-opacity="1" fill-rule="nonzero"/></g></svg>