<svg xmlns="http://www.w3.org/2000/svg" xmlns:xlink="http://www.w3.org/1999/xlink" width="40" zoomAndPan="magnify" viewBox="0 0 30 30.000001" height="40" preserveAspectRatio="xMidYMid meet" version="1.0"><defs><clipPath id="4a7f9e66ef"><path d="M 0.484375 0 L 29.515625 0 L 29.515625 29 L 0.484375 29 Z M 0.484375 0 " clip-rule="nonzero"/></clipPath></defs><g clip-path="url(#4a7f9e66ef)"><path fill="#de0909" d="M 29.394531 14.46875 C 29.394531 22.445312 22.929688 28.910156 14.953125 28.910156 C 6.976562 28.910156 0.511719 22.445312 0.511719 14.46875 C 0.511719 6.492188 6.976562 0.0273438 14.953125 0.0273438 C 22.929688 0.0273438 29.394531 6.492188 29.394531 14.46875 Z M 7.738281 10.136719 C 7.738281 9.34375 8.382812 8.691406 9.175781 8.691406 L 20.730469 8.691406 C 21.523438 8.691406 22.171875 9.34375 22.171875 10.136719 L 22.171875 18.800781 C 22.171875 19.59375 21.523438 20.246094 20.730469 20.246094 L 9.175781 20.246094 C 8.382812 20.246094 7.730469 19.59375 7.730469 18.800781 Z M 14.953125 15.191406 L 9.175781 11.582031 L 9.175781 18.800781 L 20.730469 18.800781 L 20.730469 11.582031 Z M 14.953125 13.746094 L 9.175781 10.136719 L 20.730469 10.136719 Z M 14.953125 13.746094 " fill-opacity="1" fill-rule="evenodd"/></g></svg>